<?xml version="1.0" encoding="UTF-8" standalone="no"?>
<!-- Created with Inkscape (http://www.inkscape.org/) -->

<svg
   width="2.4649734mm"
   height="2.2728119mm"
   viewBox="0 0 2.4649734 2.2728119"
   version="1.1"
   id="svg5"
   xml:space="preserve"
   xmlns:inkscape="http://www.inkscape.org/namespaces/inkscape"
   xmlns:sodipodi="http://sodipodi.sourceforge.net/DTD/sodipodi-0.dtd"
   xmlns="http://www.w3.org/2000/svg"
   xmlns:svg="http://www.w3.org/2000/svg"><sodipodi:namedview
     id="namedview7"
     pagecolor="#ffffff"
     bordercolor="#000000"
     borderopacity="0.25"
     inkscape:showpageshadow="2"
     inkscape:pageopacity="0.0"
     inkscape:pagecheckerboard="0"
     inkscape:deskcolor="#d1d1d1"
     inkscape:document-units="mm"
     showgrid="false" /><defs
     id="defs2" /><g
     inkscape:label="Camada 1"
     inkscape:groupmode="layer"
     id="layer1"
     transform="translate(-73.635065,-156.8132)"><g
       aria-label="✔"
       id="text1411"
       style="font-size:3.175px;fill:#6e93aa;stroke-width:0.264583"><path
         d="m 73.638171,157.89424 q 0.0124,-0.0496 0.06201,-0.13643 0.06201,-0.0868 0.111621,-0.14883 0.124024,-0.0992 0.235645,-0.0992 0.16123,0 0.16123,0.14883 0.02481,0.19844 0.08682,0.45889 0.03721,0.12402 0.111621,0.12402 0.04961,0 0.08682,-0.062 0.161231,-0.14883 0.334863,-0.32246 0.272852,-0.26045 0.372071,-0.38447 0.124023,-0.14883 0.334863,-0.34727 0.21084,-0.18604 0.322461,-0.26045 0.09922,-0.062 0.173633,-0.0496 0.07441,0.0124 0.06201,0.11162 -0.0124,0.0992 0,0.19844 0.0124,0.0744 0,0.0868 -0.248046,0.29765 -0.396875,0.43408 -0.359668,0.42168 -0.483691,0.5209 -0.471289,0.45888 -0.818555,0.79375 -0.124023,0.11162 -0.235644,0.12402 -0.148828,0.0124 -0.285254,-0.11162 -0.161231,-0.13643 -0.173633,-0.32246 -0.0124,-0.21084 -0.03721,-0.31006 -0.03721,-0.17363 -0.02481,-0.44648 z"
         id="path2146" /></g></g></svg>
