<?xml version="1.0" encoding="UTF-8" standalone="no"?>
<svg
   width="12.175789pt"
   height="18.390625pt"
   viewBox="0 0 12.175789 18.390625"
   version="1.1"
   id="svg2245"
   sodipodi:docname="A91w5bjx3_umcuwe_nrg.pdf"
   xmlns:inkscape="http://www.inkscape.org/namespaces/inkscape"
   xmlns:sodipodi="http://sodipodi.sourceforge.net/DTD/sodipodi-0.dtd"
   xmlns="http://www.w3.org/2000/svg"
   xmlns:svg="http://www.w3.org/2000/svg">
  <sodipodi:namedview
     id="namedview2247"
     pagecolor="#ffffff"
     bordercolor="#000000"
     borderopacity="0.25"
     inkscape:showpageshadow="2"
     inkscape:pageopacity="0.0"
     inkscape:pagecheckerboard="0"
     inkscape:deskcolor="#d1d1d1"
     inkscape:document-units="pt"
     showgrid="false" />
  <defs
     id="defs2239">
    <clipPath
       id="clip-0">
      <path
         clip-rule="nonzero"
         d="m 125.42969,615.98828 h 12.17578 v 18.39063 h -12.17578 z m 0,0"
         id="path2236" />
    </clipPath>
  </defs>
  <g
     clip-path="url(#clip-0)"
     id="g2243"
     transform="translate(-125.42968,-615.98828)">
    <path
       fill-rule="nonzero"
       fill="#009044"
       fill-opacity="1"
       d="m 125.51563,626.04297 c 0,2.96875 -1.23047,8.48437 5.60156,8.39062 6.82812,-0.0898 6.03906,-5.07422 6.47656,-10.67968 0,0 0.14453,-1.3125 -0.55859,-1.36719 -0.69532,-0.0547 -1.1836,0.79297 -1.15625,1.46094 0.0117,0.53515 0.63281,9.38671 -4.84766,9.27734 0,0 -3.96875,-0.40625 -3.96875,-4.20703 0,-3.78125 4.03125,-3.96485 4.03125,-3.96485 0,0 3.14062,-0.29687 3.03125,3.02344 -0.12109,3.33985 -2.86328,2.9336 -2.80078,2.9336 0.0625,0 -2.33985,-0.0742 -2.39844,-2.10157 -0.0508,-2.04687 2.04688,-1.99218 2.04688,-1.99218 0,0 1.27734,-0.16797 1.27734,0.9414 0,1.10547 -0.69531,0.86719 -0.69531,0.86719 0,0 -0.21875,-0.11328 -0.41407,-0.22266 -0.19531,-0.1289 -0.85156,-0.1289 -0.88671,0.46094 -0.0391,0.58984 0.23046,1.08984 1.27734,1.08984 1.05859,0 1.63281,-0.98046 1.63281,-2.0664 0,-1.08985 -0.23437,-2.01172 -2.05859,-2.01172 -1.82813,0 -3.03125,1.08984 -3.03125,2.87891 0,1.78906 1.32422,3.375 3.22656,3.375 1.91016,0 3.65234,-2.03125 3.65234,-4.20704 v -10.07031 c 0,0 0,-1.125 -0.73046,-1.125 -0.9375,0 -1.01172,1.08594 -1.01172,1.16016 0,0.0742 -0.0469,4.6289 -0.0469,4.6289 0,0 0,0.98047 -0.66015,0.98047 -0.46094,0 -0.39063,-0.98047 -0.39063,-0.98047 v -5.71875 c 0,0 0.19531,-0.80859 -0.61719,-0.80859 -0.97656,0 -0.9375,0.73828 -0.9375,0.73828 v 6.21485 c 0,0 0,0.73828 -0.57422,0.73828 -0.58593,0 -0.47265,-0.73828 -0.47265,-0.73828 v -5.58985 c 0,0 0,-0.625 -0.5,-0.625 -0.6211,0 -0.90235,0.90235 -0.90235,1.16016 v 6.42187 c 0,0 0,0.73828 -0.49999,0.73828 -0.51172,0 -0.51172,-0.73828 -0.51172,-0.73828 v -5.75781 c 0,0 0.0391,-0.46094 -0.54688,-0.46094 -0.58203,0 -0.88672,0.77344 -0.88672,0.77344 l -0.14843,7.17969"
       id="path2241" />
  </g>
</svg>
